HIERARCHY
ROOT Hips
{
	OFFSET -0.001795 -0.223333 0.028219
	CHANNELS 6 Xposition Yposition Zposition Zrotation Yrotation Xrotation
	JOINT LeftUpLeg
	{
		OFFSET 0.069520 -0.091406 -0.006815
		CHANNELS 3 Zrotation Yrotation Xrotation
		JOINT LeftLeg
		{
			OFFSET 0.034277 -0.375199 -0.004496
			CHANNELS 3 Zrotation Yrotation Xrotation
			JOINT LeftFoot
			{
				OFFSET -0.013596 -0.397961 -0.043693
				CHANNELS 3 Zrotation Yrotation Xrotation
				JOINT LeftToe
				{
					OFFSET 0.026358 -0.055791 0.119288
					CHANNELS 3 Zrotation Yrotation Xrotation
					End Site
					{
						OFFSET 0.000000 0.000000 0.000000
					}
				}
			}
		}
	}
	JOINT RightUpLeg
	{
		OFFSET -0.067670 -0.090522 -0.004320
		CHANNELS 3 Zrotation Yrotation Xrotation
		JOINT RightLeg
		{
			OFFSET -0.038290 -0.382569 -0.008850
			CHANNELS 3 Zrotation Yrotation Xrotation
			JOINT RightFoot
			{
				OFFSET 0.015774 -0.398415 -0.042312
				CHANNELS 3 Zrotation Yrotation Xrotation
				JOINT RightToe
				{
					OFFSET -0.025372 -0.048144 0.123348
					CHANNELS 3 Zrotation Yrotation Xrotation
					End Site
					{
						OFFSET 0.000000 0.000000 0.000000
					}
				}
			}
		}
	}
	JOINT Spine
	{
		OFFSET -0.002533 0.108963 -0.026696
		CHANNELS 3 Zrotation Yrotation Xrotation
		JOINT Spine1
		{
			OFFSET 0.005487 0.135180 0.001092
			CHANNELS 3 Zrotation Yrotation Xrotation
			JOINT Spine2
			{
				OFFSET 0.001457 0.052922 0.025425
				CHANNELS 3 Zrotation Yrotation Xrotation
				JOINT Neck
				{
					OFFSET -0.002778 0.213870 -0.042857
					CHANNELS 3 Zrotation Yrotation Xrotation
					JOINT Head
					{
						OFFSET 0.005152 0.064970 0.051349
						CHANNELS 3 Zrotation Yrotation Xrotation
						End Site
						{
							OFFSET 0.000000 0.000000 0.000000
						}
					}
				}
				JOINT LeftShoulder
				{
					OFFSET 0.078845 0.121749 -0.034090
					CHANNELS 3 Zrotation Yrotation Xrotation
					JOINT LeftArm
					{
						OFFSET 0.090977 0.030469 -0.008868
						CHANNELS 3 Zrotation Yrotation Xrotation
						JOINT LeftForeArm
						{
							OFFSET 0.259612 -0.012772 -0.027456
							CHANNELS 3 Zrotation Yrotation Xrotation
							JOINT LeftHand
							{
								OFFSET 0.249234 0.008986 -0.001171
								CHANNELS 3 Zrotation Yrotation Xrotation
								End Site
								{
									OFFSET 0.000000 0.000000 0.000000
								}
							}
						}
					}
				}
				JOINT RightShoulder
				{
					OFFSET -0.081759 0.118833 -0.038615
					CHANNELS 3 Zrotation Yrotation Xrotation
					JOINT RightArm
					{
						OFFSET -0.096012 0.032551 -0.009143
						CHANNELS 3 Zrotation Yrotation Xrotation
						JOINT RightForeArm
						{
							OFFSET -0.253742 -0.013329 -0.021401
							CHANNELS 3 Zrotation Yrotation Xrotation
							JOINT RightHand
							{
								OFFSET -0.255298 0.007772 -0.005559
								CHANNELS 3 Zrotation Yrotation Xrotation
								End Site
								{
									OFFSET 0.000000 0.000000 0.000000
								}
							}
						}
					}
				}
			}
		}
	}
}
MOTION
Frames: 8
Frame Time: 0.050000
0.000000 0.657677 0.000000 -2.938810 13.121866 1.613622 7.546825 -0.759655 20.427517 -2.097551 -3.022502 41.923223 -1.064987 5.698855 16.881144 0.000000 0.000000 0.000000 -8.147305 -3.744257 -63.519652 22.048718 -17.508418 61.826301 -8.189373 -19.325733 -21.629758 0.000000 0.000000 0.000000 3.228628 -12.342345 72.072216 8.530351 2.650218 -62.324783 -2.036916 -8.944846 28.534228 -5.099546 3.441951 -22.609750 0.000000 0.000000 0.000000 -28.742695 -15.239571 11.386753 -16.654667 -31.115464 -1.239400 64.961207 -65.033542 -38.934294 0.000000 0.000000 0.000000 20.874598 9.799573 2.709423 46.006890 -11.138577 -10.465846 9.224306 43.905474 4.921554 0.000000 0.000000 0.000000
0.026435 0.655601 0.103489 -4.367481 10.233930 4.674831 9.052494 -0.755669 17.160902 -5.599111 -1.192398 47.836857 3.085855 10.176475 12.695089 0.000000 0.000000 0.000000 -5.687241 -0.984146 -65.885915 22.087018 -16.773158 62.263442 -10.082154 -29.343419 -25.164979 0.000000 0.000000 0.000000 7.069271 -13.703475 70.750027 7.391968 2.849619 -69.194737 -1.745285 -7.585319 37.772910 -6.938422 4.798918 -24.934199 0.000000 0.000000 0.000000 -31.052026 -11.690922 10.114255 -15.751861 -38.092051 -1.903058 53.540790 -65.188247 -29.897020 0.000000 0.000000 0.000000 19.011144 11.773039 4.379629 44.946592 -3.972347 -8.810693 4.174176 48.659797 3.623371 0.000000 0.000000 0.000000
0.053111 0.659066 0.209419 -4.157467 5.002870 3.697046 6.785963 0.066510 15.826643 -7.987194 1.457264 52.851937 4.496237 12.301824 13.796982 0.000000 0.000000 0.000000 -3.088250 2.974538 -61.352680 19.332041 -15.772321 71.595939 -9.632213 -32.972834 -33.398861 0.000000 0.000000 0.000000 8.490197 -12.961375 74.121515 8.511765 2.863089 -66.223207 -4.872978 -3.393411 33.812411 -6.199552 5.101791 -20.024480 0.000000 0.000000 0.000000 -29.345954 -10.172080 7.237872 -22.359121 -32.761875 -0.780730 43.373281 -62.881901 -22.356226 0.000000 0.000000 0.000000 19.328956 15.220175 6.886494 41.305200 5.006231 -5.200598 0.844855 51.596644 2.545425 0.000000 0.000000 0.000000
0.073483 0.658466 0.316162 -4.382493 1.888197 1.705516 7.922820 -0.086750 4.410789 -12.668700 7.090781 70.654281 6.174454 13.892390 7.110968 0.000000 0.000000 0.000000 -2.127365 4.289053 -55.509864 18.575417 -15.775893 78.366115 -9.996010 -37.789246 -34.199211 0.000000 0.000000 0.000000 9.251966 -12.821811 78.208048 4.110887 2.137271 -65.386137 -0.213676 -4.067893 31.638824 -8.029537 6.300645 -18.595119 0.000000 0.000000 0.000000 -35.381380 -13.531731 10.358044 -25.078985 -25.049342 -1.444689 27.000469 -59.783395 -11.799887 0.000000 0.000000 0.000000 17.688402 18.697675 8.220174 36.385414 14.578408 -1.920083 -5.945737 53.331410 -0.950981 0.000000 0.000000 0.000000
0.088876 0.653461 0.428834 -5.968949 -5.936009 0.089409 12.288621 0.409902 -12.938286 -15.063053 18.780196 88.590497 8.435313 17.562975 4.163863 0.000000 0.000000 0.000000 3.294169 7.703726 -47.138712 17.291580 -11.648793 85.338142 -9.978740 -39.984447 -34.546375 0.000000 0.000000 0.000000 7.823423 -7.725261 81.735917 8.735516 2.203603 -64.671123 0.046354 6.171631 31.636647 -3.967124 5.143309 -18.442669 0.000000 0.000000 0.000000 -37.568181 -13.332984 5.480554 -29.640173 -12.857722 -2.434438 5.976175 -55.835928 -0.690869 0.000000 0.000000 0.000000 20.582167 20.991664 12.349774 25.098390 27.553140 -0.156299 -17.445808 55.243349 -6.111546 0.000000 0.000000 0.000000
0.101992 0.636993 0.549483 -3.664722 -13.340893 -5.710044 17.575435 4.104566 -29.981899 -11.027150 22.195547 102.265788 9.217755 17.600810 -6.989754 0.000000 0.000000 0.000000 4.427187 6.444645 -34.684925 15.140690 -3.923775 91.742808 -12.093101 -43.143555 -26.456613 0.000000 0.000000 0.000000 7.496527 -3.613343 89.539262 3.880063 0.841602 -72.082232 0.987981 7.921927 37.632786 -1.085842 3.604066 -17.112763 0.000000 0.000000 0.000000 -40.413472 -12.031207 3.972105 -27.133205 -0.530268 -4.870941 -5.806937 -56.574219 5.362115 0.000000 0.000000 0.000000 24.010767 23.945909 15.481219 12.983987 35.821975 -1.432016 -37.078052 55.331263 -17.013126 0.000000 0.000000 0.000000
0.115114 0.617963 0.680891 -0.207138 -16.245291 -12.418359 20.563471 9.547210 -45.557501 -9.014142 17.741056 102.031526 9.535424 16.997313 -16.629283 0.000000 0.000000 0.000000 1.003662 2.565073 -19.286432 11.987077 3.918788 94.446148 -18.545375 -43.605523 -1.344628 0.000000 0.000000 0.000000 5.758353 -0.118117 94.278986 6.435527 0.435089 -80.733943 0.795171 14.779498 44.478276 3.632523 0.037280 -8.892725 0.000000 0.000000 0.000000 -42.015147 -11.361168 0.406216 -21.256550 11.423291 -5.428926 -17.983256 -59.125247 12.077506 0.000000 0.000000 0.000000 30.363594 21.881220 19.112383 -4.377599 40.397295 -5.843138 -46.332716 57.738636 -24.744349 0.000000 0.000000 0.000000
0.129292 0.592642 0.822895 2.673220 -17.299216 -18.983611 21.251956 12.225195 -51.627187 -9.925486 13.547817 84.748252 9.205464 16.336192 -15.101328 0.000000 0.000000 0.000000 -7.453295 0.428742 -3.715308 7.971275 10.782637 94.455792 -8.513148 -20.679968 22.405575 0.000000 0.000000 0.000000 3.569526 2.327444 98.213803 18.224922 8.904632 -126.618018 13.003660 26.096769 98.352231 11.409688 -0.783551 -26.082921 0.000000 0.000000 0.000000 -40.928254 -9.021722 -3.679991 -15.517918 14.803921 -7.459858 -35.366132 -68.466851 21.190731 0.000000 0.000000 0.000000 26.722837 20.763740 18.394595 -15.975444 48.618621 -13.448346 -68.429504 56.531528 -41.646877 0.000000 0.000000 0.000000
